<?xml version="1.0" encoding="UTF-8"?>
<svg width="28px" height="25px" viewBox="0 0 28 25" version="1.1" xmlns="http://www.w3.org/2000/svg" xmlns:xlink="http://www.w3.org/1999/xlink">
    <!-- Generator: Sketch 48.2 (47327) - http://www.bohemiancoding.com/sketch -->
    <title>ch</title>
    <desc>Created with Sketch.</desc>
    <defs></defs>
    <g id="Desktop-HD" stroke="none" stroke-width="1" fill="none" fill-rule="evenodd" transform="translate(-302.000000, -147.000000)">
        <g id="ch" transform="translate(316.970563, 160.970563) rotate(-45.000000) translate(-316.970563, -160.970563) translate(300.470563, 153.470563)" fill="#000000">
            <path d="M0.348898839,2.79119071 L19.1894361,2.79119071 L19.7127844,2.79119071 L22.8528739,2.79119071 C22.8528739,4.88458374 24.4229187,6.45462852 26.5163118,6.45462852 C26.6907612,6.45462852 26.6907612,6.45462852 26.6907612,6.45462852 L30.7030978,6.45462852 C31.7497943,6.45462852 32.447592,7.1524262 32.447592,8.19912271 C32.447592,9.07136981 31.7497943,9.76916749 30.7030978,9.76916749 L26.1674129,9.76916749 C24.946267,12.3859088 22.5039751,14.130403 19.7127844,14.130403 L19.1894361,14.130403 L9.24581923,14.130403 C7.67577446,14.130403 6.45462852,12.909257 6.10572968,11.5136617 C6.10572968,11.3392123 6.10572968,11.1647628 6.2801791,11.1647628 C6.2801791,10.9903134 6.45462852,10.9903134 6.62907794,10.9903134 L11.8625605,10.9903134 C12.2114594,10.9903134 12.5603582,10.815864 12.5603582,10.4669652 C12.5603582,10.1180663 12.2114594,9.94361691 11.8625605,9.94361691 L6.10572968,9.94361691 C4.53568491,9.94361691 3.31453897,8.89692039 3.14008955,7.32687562 C2.96564013,7.1524262 3.14008955,7.1524262 3.14008955,6.97797678 C3.14008955,6.97797678 3.31453897,6.80352736 3.48898839,6.80352736 L13.9559536,6.80352736 C14.3048524,6.80352736 14.6537512,6.62907794 14.6537512,6.2801791 C14.6537512,5.93128026 14.3048524,5.75683084 13.9559536,5.75683084 L2.96564013,5.75683084 C1.57004477,5.75683084 0.174449419,4.71013432 0,3.14008955 C0,3.14008955 0,2.96564013 0,2.79119071 C0.174449419,2.79119071 0.174449419,2.79119071 0.348898839,2.79119071 Z" id="Shape"></path>
            <circle id="Oval" cx="26.5163118" cy="2.79119071" r="2.79119071"></circle>
        </g>
    </g>
</svg>