<?xml version="1.0" encoding="UTF-8"?>
<svg width="27px" height="26px" viewBox="0 0 27 26" version="1.1" xmlns="http://www.w3.org/2000/svg" xmlns:xlink="http://www.w3.org/1999/xlink">
    <!-- Generator: Sketch 48.2 (47327) - http://www.bohemiancoding.com/sketch -->
    <title>Shape</title>
    <desc>Created with Sketch.</desc>
    <defs></defs>
    <g id="Blog" stroke="none" stroke-width="1" fill="none" fill-rule="evenodd" transform="translate(-285.000000, -29.000000)">
        <g id="Header" transform="translate(128.000000, 24.000000)" fill="#3567E8" fill-rule="nonzero">
            <g id="Nav">
                <g id="Github" transform="translate(157.000000, 5.000000)">
                    <g id="Icon">
                        <path d="M13.5,0 C6.04125,0 0,5.96853729 0,13.3300665 C0,19.2208451 3.86775,24.2162875 9.230625,25.9769672 C9.905625,26.102492 10.153125,25.6903707 10.153125,25.3360131 C10.153125,25.0194241 10.141875,24.1807407 10.13625,23.0699018 C6.381,23.8741492 5.589,21.2814512 5.589,21.2814512 C4.97475,19.7429394 4.087125,19.331929 4.087125,19.331929 C2.86425,18.5054649 4.181625,18.5221275 4.181625,18.5221275 C5.53725,18.6154379 6.249375,19.8951243 6.249375,19.8951243 C7.453125,21.9335137 9.4095,21.344769 10.18125,21.0037415 C10.30275,20.1417305 10.650375,19.5540968 11.03625,19.2208451 C8.038125,18.8875934 4.887,17.7412077 4.887,12.6335706 C4.887,11.1783716 5.410125,9.98977403 6.276375,9.05666937 C6.1245,8.72008519 5.668875,7.36486176 6.3945,5.5286451 C6.3945,5.5286451 7.525125,5.17095498 10.107,6.89497692 C11.187,6.59838294 12.3345,6.45175221 13.482,6.44508717 C14.6295,6.45175221 15.777,6.59838294 16.857,6.89497692 C19.422,5.17095498 20.552625,5.5286451 20.552625,5.5286451 C21.27825,7.36486176 20.822625,8.72008519 20.687625,9.05666937 C21.54825,9.98977403 22.071375,11.1783716 22.071375,12.6335706 C22.071375,17.7545378 18.91575,18.8820393 15.912,19.2097367 C16.3845,19.6096387 16.82325,20.4272161 16.82325,21.675799 C16.82325,23.4598063 16.806375,24.8927884 16.806375,25.3260156 C16.806375,25.6759298 17.042625,26.0924944 17.7345,25.9591937 C23.135625,24.2107334 27,19.2119584 27,13.3300665 C27,5.96853729 20.955375,6.78303395e-16 13.5,6.78303395e-16" id="Shape"></path>
                    </g>
                </g>
            </g>
        </g>
    </g>
</svg>