<?xml version="1.0" encoding="UTF-8"?>
<svg width="27px" height="22px" viewBox="0 0 27 22" version="1.1" xmlns="http://www.w3.org/2000/svg" xmlns:xlink="http://www.w3.org/1999/xlink">
    <!-- Generator: Sketch 48.2 (47327) - http://www.bohemiancoding.com/sketch -->
    <title>Shape</title>
    <desc>Created with Sketch.</desc>
    <defs></defs>
    <g id="Blog" stroke="none" stroke-width="1" fill="none" fill-rule="evenodd" transform="translate(-232.000000, -31.000000)">
        <g id="Header" transform="translate(128.000000, 24.000000)" fill="#3567E8" fill-rule="nonzero">
            <g id="Nav">
                <g id="Twitter" transform="translate(104.000000, 7.000000)">
                    <g id="Icon">
                        <path d="M26.9471272,2.61988004 C25.9515437,3.05859435 24.888463,3.35746142 23.7691346,3.49392526 C24.9098371,2.80483929 25.7873005,1.71876762 26.2024082,0.422925104 C25.1325778,1.04885426 23.9468772,1.50448557 22.6846798,1.75824063 C21.6767218,0.676680166 20.2401567,0 18.6449731,0 C15.5884755,0 13.1102037,2.48454401 13.1102037,5.54539396 C13.1102037,5.98523607 13.1608266,6.40816117 13.2530728,6.81304147 C8.6520145,6.59537602 4.57405941,4.38037628 1.84492313,1.03193725 C1.36456814,1.84620905 1.09570435,2.79243349 1.09570435,3.82324294 C1.09570435,5.75178141 2.07441357,7.44686523 3.55710179,8.44271287 C2.64926461,8.41339007 1.79542519,8.1630184 1.05070622,7.7479879 L1.05070622,7.81678372 C1.05070622,10.5065874 2.95525186,12.7497821 5.48977126,13.2606757 C5.02516562,13.3858615 4.53468605,13.4535295 4.03183201,13.4535295 C3.67859673,13.4535295 3.33998583,13.4196955 3.00137494,13.3565387 C3.71122037,15.5591326 5.75188534,17.1651202 8.18065914,17.2102322 C6.29073789,18.6978008 3.89571268,19.5842518 1.31619516,19.5842518 C0.877463439,19.5842518 0.439856673,19.5583124 0,19.5086892 C2.46252239,21.0808428 5.36377651,22 8.50127078,22 C18.6865964,22 24.2494896,13.5460091 24.2494896,6.22658533 C24.2494896,5.99087507 24.2494896,5.75290921 24.2326153,5.51607115 C25.3136953,4.73901676 26.2575309,3.75670272 27,2.64243605 L26.9471272,2.61988004 Z" id="Shape"></path>
                    </g>
                </g>
            </g>
        </g>
    </g>
</svg>