<svg xmlns="http://www.w3.org/2000/svg" xml:space="preserve" width="731px" height="81px" version="1.1" style="shape-rendering:geometricPrecision; text-rendering:geometricPrecision; image-rendering:optimizeQuality; fill-rule:evenodd; clip-rule:evenodd" viewBox="0 0 731 81" xmlns:xlink="http://www.w3.org/1999/xlink">
    <g id="Layer_x0020_1">
        <metadata id="CorelCorpID_0Corel-Layer"></metadata>
        <path class="fil0" d="M228 58c-7,0 -11,-5 -11,-12 0,-6 4,-11 11,-11 5,0 8,3 10,8l10 0c-2,-10 -9,-17 -20,-17 -12,0 -21,8 -21,20 0,12 9,21 21,21 11,0 18,-7 20,-17l-10 0c-2,5 -5,8 -10,8zm45 -32c-11,0 -20,9 -20,20 0,12 9,21 20,21 12,0 21,-9 21,-21 0,-11 -9,-20 -21,-20zm0 32c-6,0 -10,-5 -10,-12 0,-6 4,-11 10,-11 7,0 11,5 11,11 0,7 -4,12 -11,12zm70 -31l-7 0 -14 21 -14 -21 -8 0 0 39 10 0 0 -20 9 14 0 0 5 0 0 0 9 -14 0 20 10 0 0 -39zm49 0l-7 0 -14 21 -14 -21 -7 0 0 39 10 0 0 -20 8 14 0 0 6 0 0 0 9 -14 0 20 9 0 0 -39zm17 8l20 0 0 -8 -30 0 0 39 30 0 0 -8 -20 0 0 -7 18 0 0 -9 -18 0 0 -7zm42 20l8 11 12 0 -10 -13c4,-3 7,-7 7,-12 0,-9 -6,-14 -16,-14l-17 0 0 39 9 0 0 -11 7 0zm-7 -9l0 -11 8 0c3,0 7,2 7,6 0,3 -4,5 -7,5l-8 0zm49 12c-6,0 -11,-5 -11,-12 0,-6 5,-11 11,-11 5,0 9,3 10,8l10 0c-1,-10 -9,-17 -20,-17 -12,0 -21,8 -21,20 0,12 9,21 21,21 11,0 19,-7 20,-17l-10 0c-1,5 -5,8 -10,8zm36 -23l20 0 0 -8 -30 0 0 39 30 0 0 -8 -20 0 0 -7 17 0 0 -9 -17 0 0 -7z"></path>
        <path class="fil1" d="M605 27l-10 0 0 15 -16 0 0 -15 -10 0 0 39 10 0 0 -15 16 0 0 15 10 0 0 -39zm17 8l20 0 0 -8 -30 0 0 39 30 0 0 -8 -20 0 0 -7 17 0 0 -9 -17 0 0 -7zm41 20l9 11 11 0 -10 -13c5,-3 8,-7 8,-12 0,-9 -7,-14 -17,-14l-17 0 0 39 10 0 0 -11 6 0zm-6 -9l0 -11 7 0c4,0 7,2 7,6 0,3 -3,5 -7,5l-7 0zm49 -20c-12,0 -21,9 -21,20 0,12 9,21 21,21 12,0 21,-9 21,-21 0,-11 -9,-20 -21,-20zm0 32c-7,0 -11,-5 -11,-12 0,-6 4,-11 11,-11 6,0 11,5 11,11 0,7 -5,12 -11,12z"></path>
        <path class="fil1" d="M5 16l108 0 3 0 18 0 0 0c0,12 9,21 21,21 1,0 1,0 1,0l0 0 23 0c6,0 10,4 10,10l0 0c0,5 -4,9 -10,9l-26 0c-7,15 -21,25 -37,25l0 0 -3 0 -57 0c-9,0 -16,-7 -18,-15 0,-1 0,-2 1,-2 0,-1 1,-1 2,-1l30 0c2,0 4,-1 4,-3 0,-2 -2,-3 -4,-3l-33 0c-9,0 -16,-6 -17,-15 -1,-1 0,-1 0,-2 0,0 1,-1 2,-1l60 0c2,0 4,-1 4,-3 0,-2 -2,-3 -4,-3l-63 0c-8,0 -16,-6 -17,-15 0,0 0,-1 0,-2 1,0 1,0 2,0z"></path>
        <circle class="fil2" cx="155" cy="16" r="16"></circle>
    </g>
</svg>